<svg xmlns="http://www.w3.org/2000/svg" viewBox="0 0 64 64" id="finance">
  <path fill="#3b4551" d="M19 22.47h.1a9.34 9.34 0 0 0 1.28 2.92 4.85 4.85 0 0 0 4.08 2.51 4.85 4.85 0 0 0 4.08-2.51 9.34 9.34 0 0 0 1.28-2.92h.1c.31.05.66-.5.79-1.24s0-1.38-.32-1.43a.29.29 0 0 0-.2 0 .12.12 0 0 1-.17-.09 5.56 5.56 0 0 0-11.11 0 .12.12 0 0 1-.17.09.29.29 0 0 0-.2 0c-.31.05-.45.69-.32 1.43s.5 1.29.78 1.24Z"></path>
  <path fill="#36c" d="M26 30.66h-3.05a.53.53 0 0 0-.46.8l1 1.74a.8.8 0 0 0-.05.24l-.54 14.1c0 .58 1.59 2.14 1.59 2.14s1.61-1.56 1.59-2.14l-.54-14.1a.8.8 0 0 0-.05-.24l1-1.74a.53.53 0 0 0-.49-.8Z"></path>
  <path fill="#3b4551" d="M50.44 26.29a1.73 1.73 0 0 0-2.34.55l-4.34 6.79-9.9-2.87-.73-.18c-1.65-.31-4.1-.65-4.1-.65l-1.92 12.45a9.32 9.32 0 0 0-.11 2.35c.16 2.41.52 8.07.62 9.52H21.2c.09-1.45.46-7.11.62-9.52a9.32 9.32 0 0 0-.14-2.35l-1.92-12.45s-2.83.39-4.46.72a7.9 7.9 0 0 0-2.52 1.45c-1 .68-4.94 3.44-5.91 4.11s-2.29 1.51-1.91 3l1.8 10.19a1.73 1.73 0 0 0 2.09 1.19 1.73 1.73 0 0 0 1.27-2l-.81-8.8 4.41-2 .19 1.68a34.46 34.46 0 0 1 0 5.12l-.44 10h1v3A5.43 5.43 0 0 0 19.9 63h9.19a5.43 5.43 0 0 0 5.43-5.43v-3h.79l-.44-10a34.46 34.46 0 0 1 0-5.12l.29-2s6.85 1 8.54 1.1a2.74 2.74 0 0 0 2.75-1.43l4.63-8.47a1.73 1.73 0 0 0-.64-2.36ZM29.21 48.78a.47.47 0 0 1 .44-.49h3.1a.47.47 0 0 1 .44.49v.74a.47.47 0 0 1-.44.49h-3.1a.47.47 0 0 1-.44-.49Zm-13.63 0a.47.47 0 0 1 .44-.49h3.1a.47.47 0 0 1 .44.49v.74a.47.47 0 0 1-.44.49H16a.47.47 0 0 1-.44-.49Z"></path>
  <path fill="#36c" d="M46.22 6.73h8.09s.88-3.55 2.69-4.44c1.38-.69-.46-.31-1.35-.1A.73.73 0 0 1 54.9 2l-.74-.85a.33.33 0 0 0-.51 0l-1.29 1.44a.73.73 0 0 1-1 .13l-1.54-1a.33.33 0 0 0-.47.1l-.83 1.36a.73.73 0 0 1-1 .25l-1-.57a.33.33 0 0 0-.44.1l-.72 1a.73.73 0 0 1-.77.29l-.6-.14a.33.33 0 0 0-.29.58zm10.14 6.37a6.69 6.69 0 0 1-2.11-4.85h-7.93a6.69 6.69 0 0 1-2.11 4.85 8.79 8.79 0 0 0-2.75 6.39s0 0 0 .06a5.44 5.44 0 0 0 5.46 5.39h6.73a5.44 5.44 0 0 0 5.46-5.38v-.06a8.79 8.79 0 0 0-2.75-6.4zM51 20.65V22h-1.41v-1.29a5 5 0 0 1-2.25-.65l-.16-.1.56-1.42.24.17a4.08 4.08 0 0 0 2 .53c.72 0 1.45-.31 1.45-.9 0-.42-.22-.71-1.43-1.12-1.6-.54-2.59-1.14-2.59-2.41a2.4 2.4 0 0 1 2.27-2.2v-1.4h1.37v1.33a4.68 4.68 0 0 1 1.85.52l.18.1-.56 1.4-.23-.14a3.6 3.6 0 0 0-1.72-.42c-.75 0-1.29.31-1.29.74s.22.64 1.57 1.1c1.69.54 2.48 1.32 2.48 2.44A2.58 2.58 0 0 1 51 20.65z"></path>
</svg>
